<?xml version="1.0" encoding="UTF-8" standalone="no"?>
<svg width="512" height="512" viewBox="0 0 512 512" fill="none" xmlns="http://www.w3.org/2000/svg">
  <path d="M256 64C150.5 64 64 150.5 64 256C64 361.5 150.5 448 256 448C361.5 448 448 361.5 448 256C448 150.5 361.5 64 256 64ZM256 96C344.4 96 416 167.6 416 256C416 344.4 344.4 416 256 416C167.6 416 96 344.4 96 256C96 167.6 167.6 96 256 96Z" fill="currentColor"/>
  <path d="M256 128L192 320H240L256 256L272 320H320L256 128Z" fill="currentColor"/>
</svg>